<!DOCTYPE svg PUBLIC "-//W3C//DTD SVG 1.1//EN" "http://www.w3.org/Graphics/SVG/1.1/DTD/svg11.dtd">
<!-- Uploaded to: SVG Repo, www.svgrepo.com, Transformed by: SVG Repo Mixer Tools -->
<svg fill="#ffffff" version="1.1" id="Capa_1" xmlns="http://www.w3.org/2000/svg" xmlns:xlink="http://www.w3.org/1999/xlink" width="800px" height="800px" viewBox="0 0 82.469 82.469" xml:space="preserve" stroke="#ffffff">
<g id="SVGRepo_bgCarrier" stroke-width="0"/>
<g id="SVGRepo_tracerCarrier" stroke-linecap="round" stroke-linejoin="round"/>
<g id="SVGRepo_iconCarrier"> <g> <path d="M82.357,14.118c-1.066-9.134-10.037-6.199-21.37-4.874c-16.373,1.912-19.417,4.54-19.722,7.733h-0.061 c-0.305-3.193-3.349-5.821-19.722-7.733C10.15,7.919,1.181,4.984,0.113,14.118c-1.067,9.132,5.516,19.525,16.849,20.85 c6.737,0.788,13.61-1.597,18.302-5.577c0.082-0.049,6.488-3.806,11.571-0.329c0.403,0.359,0.823,0.708,1.263,1.044 c0.003,0.003,0.007,0.007,0.011,0.01v-0.003c4.646,3.542,11.082,5.594,17.4,4.855c5.455-0.638,9.806-3.379,12.735-7.067v45.34 c0,0.831,0.674,1.504,1.505,1.504h1.005c0.831,0,1.504-0.673,1.504-1.504V18.766C82.496,17.214,82.536,15.647,82.357,14.118z M31.353,22.836c-0.998,3.082-5.844,4.274-10.823,2.662c-4.98-1.612-8.208-5.418-7.209-8.501c0.998-3.082,5.844-4.274,10.824-2.661 C29.123,15.947,32.351,19.754,31.353,22.836z M64.46,25.498c-4.979,1.612-9.825,0.42-10.823-2.662s2.229-6.889,7.209-8.5 c4.979-1.613,9.826-0.421,10.824,2.661C72.667,20.08,69.439,23.885,64.46,25.498z"/> </g> </g>
</svg>